<svg width="127.494" height="53.8721" overflow="visible" viewBox="0 0 127.494 53.8721" fill="none" xmlns="http://www.w3.org/2000/svg">
<g id="black_badge">
<path id="Vector" d="M4.80792 20.6229L0.236216 11.8073C-0.106661 11.142 -0.0760756 10.4943 0.327972 9.86242C0.73202 9.22262 1.31636 8.90271 2.07938 8.90271H2.31602C3.25611 8.90271 3.8968 9.32925 4.23967 10.1823C5.91704 14.4127 6.88772 16.8525 7.15011 17.5018L10.0879 10.1823C10.4308 9.32925 11.0715 8.90271 12.0116 8.90271H12.0518C12.8325 8.90271 13.4217 9.22739 13.8161 9.87515C14.2201 10.5229 14.2378 11.1802 13.8692 11.8455L9.14137 20.4828V24.2182C9.14137 24.7991 8.93532 25.2925 8.52162 25.7031C8.09986 26.1042 7.5944 26.3047 7.00684 26.3047H6.95372C6.36455 26.3047 5.86069 26.1042 5.43894 25.7031C5.01718 25.2941 4.80631 24.7991 4.80631 24.2182V20.6229H4.80792Z" fill="var(--fill-0, #34ABF7)"/>
<path id="Vector_2" d="M24.3914 8.46834C27.0249 8.70707 29.1546 9.62381 30.7789 11.2185C32.4997 12.8992 33.3609 15.0955 33.3609 17.8075C33.3609 20.3063 32.6059 22.3498 31.096 23.9366C29.4975 25.6173 27.2632 26.534 24.3914 26.6868C24.2062 26.7043 24.071 26.7123 23.9825 26.7123H23.5478C23.4593 26.7123 23.3289 26.7043 23.1518 26.6868C20.272 26.534 18.0328 25.6173 16.4343 23.9366C14.9244 22.3498 14.1694 20.3079 14.1694 17.8075C14.1694 15.0955 15.0306 12.8992 16.7515 11.2185C18.3757 9.62381 20.5102 8.70707 23.1518 8.46834C23.4239 8.43492 23.6299 8.41741 23.7716 8.41741C23.9036 8.41741 24.1097 8.43492 24.3914 8.46834ZM23.7716 23.2984C25.1673 23.2984 26.3617 22.7398 27.3549 21.6225C28.3385 20.5052 28.8294 19.1524 28.8294 17.5656C28.8294 15.9789 28.3369 14.6276 27.3549 13.5104C26.3617 12.3931 25.1689 11.8345 23.7716 11.8345C22.3743 11.8345 21.1719 12.3931 20.1883 13.5104C19.1951 14.6276 18.6993 15.9804 18.6993 17.5656C18.6993 19.1508 19.1951 20.5052 20.1883 21.6225C21.1719 22.7398 22.3663 23.2984 23.7716 23.2984Z" fill="var(--fill-0, #34ABF7)"/>
<path id="Vector_3" d="M45.7933 10.682C45.7933 10.1107 45.9993 9.62366 46.413 9.22418C46.8348 8.81515 47.3386 8.60984 47.9278 8.60984H47.968C48.5556 8.60984 49.0611 8.81515 49.4828 9.22418C49.8949 9.62525 50.1026 10.1107 50.1026 10.682V18.8578C50.1026 20.9141 49.3556 22.6664 47.8634 24.1163C46.3615 25.5757 44.5537 26.3047 42.4369 26.3047H42.2792C40.1108 26.3047 38.258 25.5582 36.7207 24.0654C35.1834 22.5725 34.4155 20.7693 34.4155 18.6525V10.6804C34.4155 10.1091 34.6216 9.62207 35.0353 9.22259C35.457 8.81356 35.9609 8.60825 36.5501 8.60825H36.5903C37.1779 8.60825 37.6833 8.81356 38.1051 9.22259C38.5172 9.62366 38.7248 10.1091 38.7248 10.6804V19.2271C38.7248 20.174 39.0709 20.9841 39.7647 21.6574C40.4489 22.3226 41.2795 22.6553 42.2534 22.6553H42.3323C43.2901 22.6553 44.1062 22.3274 44.7823 21.6701C45.4584 21.0128 45.7965 20.225 45.7965 19.3035V10.6789L45.7933 10.682Z" fill="var(--fill-0, #34ABF7)"/>
<path id="Vector_4" d="M122.665 0H61.5379C58.8707 0 56.7086 2.1376 56.7086 4.77446V31.217C56.7086 33.8538 58.8707 35.9914 61.5379 35.9914H122.665C125.332 35.9914 127.494 33.8538 127.494 31.217V4.77446C127.494 2.1376 125.332 0 122.665 0Z" fill="url(#paint0_linear_0_898)"/>
<path id="Vector_5" d="M85.2632 23.3954C85.5176 24.0607 85.4339 24.6877 85.0137 25.2766C84.5839 25.8655 84.0044 26.1599 83.2752 26.1599H83.222C82.7649 26.1599 82.348 26.0278 81.9713 25.7636C81.6026 25.4994 81.3483 25.1541 81.2066 24.7275L80.3503 22.1683H74.6083L73.805 24.7021C73.673 25.1365 73.4187 25.4867 73.0404 25.7509C72.6621 26.0246 72.2419 26.1599 71.7767 26.1599H71.553C70.8237 26.1599 70.2491 25.8702 69.8273 25.2893C69.4055 24.718 69.3138 24.0957 69.5504 23.4209L73.9241 11.0736C74.1704 10.3829 74.6002 9.82426 75.2151 9.39773C75.8301 8.96324 76.519 8.74519 77.2837 8.74519H77.3239C78.0789 8.74519 78.7598 8.95369 79.3651 9.37226C79.98 9.79084 80.4146 10.3399 80.669 11.0227L85.2664 23.3954H85.2632ZM79.2315 18.7385L79.2186 18.7131C78.5167 16.5724 77.9356 14.5241 77.4801 12.5713H77.4012C77.068 14.1246 76.5013 16.1793 75.7013 18.7385H79.2315Z" fill="var(--fill-0, black)"/>
<path id="Vector_6" d="M90.9947 20.0675V24.2007C90.9947 24.7721 90.7919 25.2543 90.3895 25.6474C89.9774 26.0485 89.48 26.2491 88.9021 26.2491H88.8618C88.2727 26.2491 87.7769 26.0485 87.3728 25.6474C86.9607 25.2559 86.753 24.7737 86.753 24.2007V10.7792C86.753 10.2078 86.9591 9.72083 87.3728 9.31976C87.7946 8.91869 88.2984 8.71815 88.8876 8.71815H93.8794C94.1161 8.71815 94.3801 8.73566 94.6698 8.76908L94.7889 8.79455C96.1943 9.00781 97.3661 9.63966 98.3062 10.6885C99.2544 11.7469 99.7293 12.9787 99.7293 14.3857C99.7293 15.5284 99.3606 16.6584 98.6234 17.7757C97.6495 19.2685 96.2264 20.0229 94.3559 20.0404L90.998 20.0659L90.9947 20.0675ZM91.0076 16.9321H93.089C93.8086 16.9321 94.4187 16.6727 94.9193 16.1523C95.428 15.6318 95.684 15.0048 95.684 14.2711C95.684 13.5374 95.4296 12.8976 94.9193 12.3771C94.4187 11.8567 93.8086 11.5973 93.089 11.5973H91.0076V16.9321Z" fill="var(--fill-0, black)"/>
<path id="Vector_7" d="M105.703 20.0675V24.2007C105.703 24.7721 105.501 25.2543 105.098 25.6474C104.686 26.0485 104.189 26.2491 103.611 26.2491H103.571C102.981 26.2491 102.486 26.0485 102.082 25.6474C101.669 25.2559 101.462 24.7737 101.462 24.2007V10.7792C101.462 10.2078 101.668 9.72083 102.082 9.31976C102.503 8.91869 103.007 8.71815 103.596 8.71815H108.588C108.825 8.71815 109.089 8.73566 109.379 8.76908L109.498 8.79455C110.903 9.00781 112.075 9.63966 113.015 10.6885C113.963 11.7469 114.438 12.9787 114.438 14.3857C114.438 15.5284 114.069 16.6584 113.332 17.7757C112.358 19.2685 110.935 20.0229 109.065 20.0404L105.707 20.0659L105.703 20.0675ZM105.716 16.9321H107.798C108.517 16.9321 109.127 16.6727 109.628 16.1523C110.137 15.6318 110.393 15.0048 110.393 14.2711C110.393 13.5374 110.138 12.8976 109.628 12.3771C109.127 11.8567 108.517 11.5973 107.798 11.5973H105.716V16.9321Z" fill="var(--fill-0, black)"/>
<path id="Vector_8" d="M120.085 24.0352C120.085 24.6161 119.874 25.1063 119.452 25.5058C119.04 25.9148 118.534 26.1202 117.937 26.1202H117.897C117.3 26.1202 116.794 25.9148 116.382 25.5058C115.96 25.1047 115.75 24.6145 115.75 24.0352V10.8047C115.75 10.2254 115.96 9.73516 116.382 9.33409C116.794 8.92507 117.3 8.71976 117.897 8.71976H117.937C118.534 8.71976 119.04 8.92507 119.452 9.33409C119.874 9.73516 120.085 10.2254 120.085 10.8047V24.0352Z" fill="var(--fill-0, black)"/>
<path id="Vector_9" d="M64.5939 19.994C66.0457 19.994 67.2227 18.8304 67.2227 17.395C67.2227 15.9597 66.0457 14.796 64.5939 14.796C63.1421 14.796 61.9652 15.9597 61.9652 17.395C61.9652 18.8304 63.1421 19.994 64.5939 19.994Z" fill="var(--fill-0, black)"/>
<path id="Vector_10" d="M69.3339 41.1033C69.2824 41.1113 69.2325 41.1288 69.1874 41.1574C69.1424 41.1845 69.1037 41.2211 69.0715 41.2625C69.041 41.3054 69.0184 41.3532 69.0072 41.4041C68.9959 41.455 68.9943 41.5076 69.0023 41.5585C69.0393 41.7765 69.2229 41.9405 69.4466 41.9229C69.7782 41.8688 70.1098 41.9771 70.3867 42.1967C70.6636 42.4147 70.8294 42.7442 70.8841 43.0896C70.9211 43.3076 71.1063 43.4715 71.3284 43.454C71.4347 43.4333 71.5296 43.3713 71.5908 43.2837C71.652 43.1962 71.6777 43.0864 71.66 42.9813C71.594 42.4131 71.3107 41.8911 70.868 41.5251C70.4076 41.1797 69.8732 41.0333 69.3404 41.1065" fill="var(--fill-0, #E98C4C)"/>
<path id="Vector_11" d="M69.504 39.2827C69.4493 39.2922 69.3994 39.3113 69.3527 39.34C69.306 39.3686 69.2674 39.4068 69.2368 39.4498C69.2062 39.4944 69.1837 39.5437 69.1724 39.5962C69.1611 39.6487 69.1611 39.7028 69.1724 39.7554C69.2094 39.975 69.3945 40.1373 69.6167 40.1023C71.0172 39.9018 72.3066 40.9586 72.4917 42.4515C72.5287 42.6695 72.7122 42.8334 72.9344 42.7968C73.039 42.7777 73.1308 42.7188 73.1919 42.6345C73.2531 42.5501 73.2789 42.4451 73.266 42.3416C73.0084 40.392 71.3134 39.0264 69.5072 39.2811" fill="var(--fill-0, #E98C4C)"/>
<path id="Vector_12" d="M70.5357 51.9242C69.3928 51.9242 68.6378 50.9947 68.6378 49.9379V43.9457C68.6378 43.7818 68.7296 43.6736 68.8954 43.6736H69.2817C69.4475 43.6736 69.5393 43.7643 69.5393 43.9457V49.9411C69.5393 50.487 69.9079 51.0711 70.5518 51.0711C70.9011 51.0711 71.0862 50.9072 71.252 50.7623C71.4178 50.6159 71.5289 50.5984 71.6754 50.7082L71.8976 50.8897C71.9265 50.9104 71.9523 50.9374 71.97 50.9692C71.9893 50.9995 72.0006 51.0345 72.007 51.0695C72.0118 51.1045 72.0102 51.1411 72.0006 51.1761C71.9925 51.2112 71.9748 51.243 71.9523 51.2716C71.6384 51.617 71.1796 51.9273 70.5341 51.9273" fill="var(--fill-0, #2770B2)"/>
<path id="Vector_13" d="M60.7558 44.2735C60.59 44.0618 60.3792 43.8915 60.1361 43.7737C59.893 43.6575 59.6258 43.5971 59.3554 43.5987C59.1042 43.5955 58.8547 43.6448 58.6229 43.7419C58.3911 43.839 58.1835 43.9822 58.0112 44.1637C57.6506 44.5504 57.4526 45.0581 57.4591 45.5849V45.986C57.4381 46.0258 57.4076 46.0592 57.3673 46.0831C57.3287 46.1053 57.2836 46.1165 57.2369 46.1149H56.9794C56.8136 46.1149 56.7218 46.2056 56.7218 46.387V46.6608C56.7218 46.8247 56.8136 46.9329 56.9794 46.9329H57.2369C57.282 46.9314 57.3271 46.9425 57.3673 46.9648C57.4059 46.9871 57.4381 47.0205 57.4591 47.0619V51.5803C57.4591 51.7617 57.5508 51.854 57.7166 51.854H58.103C58.1416 51.854 58.1802 51.8461 58.214 51.8301C58.2495 51.8142 58.28 51.7919 58.3058 51.7617C58.3605 51.7251 58.3976 51.6344 58.3976 51.5437V47.2051C58.3976 47.0221 58.4893 46.9314 58.6551 46.9314H59.6129C59.7787 46.9314 59.8705 46.8406 59.8705 46.6592V46.3855C59.8705 46.2215 59.7787 46.1133 59.6129 46.1133H58.6551C58.4893 46.1133 58.3976 46.0035 58.3976 45.8396V45.5467C58.3943 45.2443 58.5054 44.9515 58.7099 44.7271C58.7968 44.6395 58.8998 44.5711 59.0141 44.5233C59.1284 44.4772 59.2507 44.4533 59.3747 44.4533C59.724 44.4533 59.9091 44.6172 60.0749 44.7621C60.2407 44.9085 60.3518 44.926 60.4983 44.8162L60.516 44.7987L60.7188 44.6523C60.7719 44.6045 60.8057 44.5393 60.8122 44.4676C60.8186 44.396 60.7993 44.326 60.7558 44.2687" fill="var(--fill-0, #2770B2)"/>
<path id="Vector_14" d="M66.4436 44.2735C66.2794 44.0618 66.0669 43.8915 65.8238 43.7737C65.5808 43.6575 65.3135 43.5971 65.0431 43.5987C64.792 43.5955 64.5425 43.6448 64.3107 43.7419C64.0789 43.839 63.8712 43.9822 63.699 44.1637C63.3384 44.5504 63.1404 45.0581 63.1452 45.5849V45.986C63.1243 46.0258 63.0937 46.0592 63.0534 46.0831C63.0148 46.1053 62.9697 46.1165 62.9231 46.1149H62.6655C62.4997 46.1149 62.4079 46.2056 62.4079 46.387V46.6608C62.4079 46.8247 62.4997 46.9329 62.6655 46.9329H62.9231C62.9681 46.9314 63.0132 46.9409 63.0534 46.9648C63.0921 46.9871 63.1243 47.0205 63.1452 47.0619V51.5803C63.1452 51.7617 63.237 51.854 63.4028 51.854H63.7891C63.8277 51.854 63.8664 51.8461 63.9002 51.8301C63.9356 51.8142 63.9662 51.7919 63.9919 51.7617C64.0483 51.7251 64.0837 51.6344 64.0837 51.5437V47.2051C64.0837 47.0221 64.1754 46.9314 64.3412 46.9314H65.188C65.3538 46.9314 65.4455 46.8406 65.4455 46.6592V46.3855C65.4455 46.2215 65.3538 46.1133 65.188 46.1133H64.3412C64.1754 46.1133 64.0837 46.0035 64.0837 45.8396V45.5467C64.0805 45.2443 64.1931 44.9515 64.3976 44.7271C64.4845 44.6395 64.5875 44.5711 64.7002 44.5233C64.8145 44.4772 64.9369 44.4533 65.0592 44.4533C65.4085 44.4533 65.5936 44.6172 65.7594 44.7621C65.9252 44.9085 66.0363 44.926 66.1828 44.8162L66.2005 44.7987L66.4033 44.6523C66.4323 44.63 66.4549 44.6029 66.4726 44.5711C66.4903 44.5393 66.4999 44.5042 66.5048 44.4692C66.508 44.4342 66.5048 44.3976 66.4935 44.3626C66.4822 44.3292 66.4645 44.2973 66.4404 44.2703" fill="var(--fill-0, #2770B2)"/>
<path id="Vector_15" d="M53.0826 45.9843H52.9715C52.4564 45.9843 52.0314 46.1117 51.6628 46.3488C51.6177 46.3759 51.5823 46.4125 51.5565 46.457C51.5308 46.5016 51.5163 46.5525 51.5163 46.6034C51.5131 46.648 51.5259 46.6942 51.5533 46.7308L51.7014 47.0236C51.7754 47.17 51.8672 47.2417 52.033 47.1509C52.3179 46.9854 52.6415 46.8979 52.9731 46.8947C53.6186 46.8947 53.9872 47.4597 53.9872 48.0056V48.2984C53.9872 48.4624 53.8955 48.5722 53.7297 48.5722H51.5742C51.2426 48.5722 51.0575 48.7727 51.0575 49.1181V49.9552C51.0575 50.9388 51.7207 51.8317 52.7526 51.9415H52.9731C53.0407 51.9447 53.1099 51.9383 53.1759 51.924H53.213C53.2677 51.924 53.324 51.9049 53.3788 51.9049H53.3981C53.609 51.8651 53.8102 51.7855 53.9889 51.6677C54.0436 51.6311 54.0999 51.6311 54.1547 51.7219C54.174 51.7537 54.1997 51.7808 54.2319 51.7998C54.2641 51.8189 54.3011 51.8301 54.3382 51.8301H54.6344C54.8002 51.8301 54.8919 51.7394 54.8919 51.5563V48.0024C54.8919 46.9456 54.174 46.0528 53.0858 45.9796H53.0842L53.0826 45.9843ZM53.9325 50.3372V50.3563C53.9325 50.3738 53.9132 50.3738 53.9132 50.3929C53.8681 50.5314 53.7941 50.6587 53.6959 50.7653C53.5977 50.872 53.4753 50.9563 53.3401 51.0136C53.229 51.0566 53.1099 51.0821 52.9908 51.0868C52.3453 51.0868 51.9767 50.5218 51.9767 49.9759C51.9734 49.7913 52.0185 49.6099 52.1054 49.4475C52.1441 49.4253 52.1891 49.4125 52.2342 49.4109H53.7619C53.807 49.4109 53.852 49.4253 53.8907 49.4475C53.9728 49.6194 54.0162 49.8056 54.0194 49.9934C53.9824 50.0667 53.9631 50.2115 53.9277 50.3388" fill="var(--fill-0, #2770B2)"/>
<path id="Vector_16" d="M75.5636 51.9241H75.6747C76.1914 51.9241 76.6148 51.7968 76.9834 51.5597C77.0269 51.531 77.0655 51.4928 77.0929 51.4498C77.1219 51.4053 77.1396 51.3559 77.1476 51.305C77.1508 51.2589 77.138 51.2143 77.1106 51.1777L76.9625 50.8848C76.8885 50.7384 76.7967 50.6843 76.6502 50.7575C76.3588 50.9246 76.0288 51.0122 75.6908 51.0122C75.0453 51.0122 74.6783 50.4472 74.6783 49.8822V49.5893C74.6783 49.4254 74.7716 49.3156 74.9358 49.3156H77.0559C77.3682 49.3156 77.5726 49.115 77.5726 48.7697V47.9341C77.5726 46.9505 76.9094 46.0577 75.8775 45.9479H75.657C75.5894 45.9447 75.5202 45.951 75.4542 45.967H75.4171C75.3624 45.967 75.3061 45.9845 75.2513 45.9845H75.2336C75.0244 46.0274 74.8231 46.107 74.6412 46.2216C74.5865 46.2582 74.5318 46.2582 74.4754 46.1675C74.4577 46.1357 74.4304 46.1086 74.3982 46.0895C74.366 46.0704 74.3289 46.0593 74.2903 46.0593H73.9941C73.8283 46.0593 73.7366 46.15 73.7366 46.3314V49.8838C73.7543 50.9565 74.4754 51.87 75.5604 51.9241H75.562H75.5636ZM74.7137 47.5856V47.5681C74.7137 47.549 74.7314 47.549 74.7314 47.5315C74.8425 47.2577 75.0276 47.0206 75.3238 46.9123C75.4348 46.8694 75.554 46.8439 75.6731 46.8391C76.3186 46.8391 76.6872 47.4041 76.6872 47.95C76.6905 48.1346 76.6454 48.3161 76.5568 48.4784C76.5182 48.5007 76.4731 48.5134 76.4281 48.515H74.9004C74.8537 48.515 74.8103 48.5007 74.7716 48.4784C74.6976 48.3113 74.6606 48.1315 74.6622 47.95C74.6622 47.8259 74.6799 47.7033 74.7169 47.5856" fill="var(--fill-0, #2770B2)"/>
<path id="Vector_17" d="M37.8458 51.7602C37.7911 51.6504 37.7541 51.4673 37.7171 51.2143C37.2937 51.6535 36.7963 51.87 36.2071 51.87C35.6904 51.87 35.2493 51.7236 34.9177 51.4307C34.7583 51.2923 34.6312 51.122 34.5442 50.9294C34.4589 50.7368 34.4155 50.5299 34.4203 50.3198C34.4203 49.7739 34.6231 49.3538 35.0465 49.045C35.4698 48.7362 36.0606 48.5898 36.8333 48.5898H37.7171V48.1728C37.7171 47.8641 37.6253 47.6078 37.4402 47.4264C37.2567 47.2449 36.9605 47.1526 36.5918 47.1526C36.2602 47.1526 36.0011 47.2258 35.7821 47.3898C35.5632 47.5537 35.4505 47.7542 35.4505 47.9739H34.5298C34.5298 47.7192 34.6215 47.463 34.8066 47.2083C35.0111 46.9521 35.2767 46.7516 35.5809 46.6242C35.9174 46.4762 36.2812 46.403 36.6498 46.4062C37.2583 46.4062 37.7364 46.5526 38.0873 46.8614C38.4366 47.1701 38.6217 47.5919 38.6217 48.1187V50.541C38.6217 51.0328 38.6781 51.4148 38.8069 51.6885V51.7618H37.8491L37.8458 51.7602ZM36.3343 51.0869C36.6192 51.0854 36.8993 51.009 37.1456 50.8673C37.4032 50.7209 37.5899 50.5395 37.6977 50.3023V49.2296H36.9782C35.8546 49.2296 35.3024 49.5575 35.3024 50.1941C35.3024 50.4678 35.3942 50.705 35.5793 50.8498C35.7998 51.0058 36.0638 51.0869 36.3343 51.0854V51.0869Z" fill="var(--fill-0, #36373B)"/>
<path id="Vector_18" d="M41.4058 46.4953L41.4428 47.151C41.8485 46.6417 42.3829 46.3855 43.0461 46.3855C44.1698 46.3855 44.7412 47.0046 44.7412 48.2619V51.7442H43.8381V48.2619C43.8381 47.8799 43.7464 47.6062 43.5806 47.4248C43.4148 47.2433 43.1363 47.151 42.7693 47.151C42.4924 47.1431 42.2203 47.2258 41.995 47.3882C41.7696 47.5457 41.5925 47.759 41.4783 48.0073V51.7601H40.5752V46.4953H41.4042H41.4058Z" fill="var(--fill-0, #36373B)"/>
<path id="Vector_19" d="M86.0475 51.1219C86.3791 51.1219 86.656 51.0312 86.8942 50.829C87.1228 50.6476 87.2677 50.385 87.2999 50.0985H88.1659C88.1482 50.4089 88.0371 50.6842 87.8536 50.9548C87.6476 51.2365 87.3755 51.4641 87.0616 51.62C86.7477 51.776 86.4 51.854 86.0491 51.8476C85.3295 51.8476 84.7404 51.6105 84.317 51.1378C83.892 50.6651 83.6715 50.0078 83.6715 49.1706V49.0242C83.6634 48.5547 83.7584 48.09 83.9484 47.6587C84.119 47.2767 84.4007 46.9536 84.7581 46.7292C85.109 46.5112 85.5324 46.4013 86.0298 46.4013C86.6205 46.4013 87.1131 46.5828 87.522 46.9297C87.9084 47.2767 88.1305 47.7494 88.1482 48.3144H87.2822C87.2661 47.9961 87.1276 47.6969 86.8958 47.4772C86.7799 47.369 86.6447 47.2846 86.4966 47.2274C86.3485 47.1716 86.1891 47.1446 86.0314 47.1494C85.571 47.1494 85.2024 47.3133 84.9625 47.6412C84.7065 47.9722 84.5778 48.4465 84.5778 49.064V49.2279C84.5778 49.8295 84.7066 50.3038 84.9641 50.6301C85.2217 50.9579 85.5903 51.1219 86.0507 51.1219H86.0475Z" fill="var(--fill-0, #36373B)"/>
<path id="Vector_20" d="M89.4627 49.0831C89.4563 48.604 89.5642 48.1297 89.7766 47.6984C89.9618 47.3037 90.2644 46.9743 90.6427 46.7514C91.0226 46.5302 91.4556 46.4172 91.8967 46.4236C92.6146 46.4236 93.2038 46.6782 93.6642 47.17C94.1085 47.6618 94.329 48.3175 94.329 49.1563V49.2104C94.329 49.7213 94.2357 50.1765 94.0328 50.595C93.83 50.9961 93.5531 51.324 93.1845 51.542C92.8014 51.7712 92.3619 51.8906 91.9128 51.8874C91.1932 51.8874 90.604 51.6327 90.163 51.1409C89.7203 50.6491 89.4998 49.9934 89.4998 49.1738V49.0831H89.4643H89.4627ZM90.3835 49.1929C90.3835 49.7786 90.5123 50.2497 90.7892 50.595C90.918 50.7637 91.0854 50.899 91.2769 50.9913C91.4685 51.0836 91.681 51.1282 91.8951 51.1234C92.1108 51.1282 92.3249 51.082 92.5164 50.9866C92.7096 50.8911 92.8754 50.7494 92.9994 50.5759C93.2762 50.2115 93.405 49.7197 93.405 49.0656C93.405 48.4815 93.2569 48.0279 92.9817 47.6634C92.8577 47.4899 92.6919 47.3499 92.4987 47.2544C92.3056 47.1589 92.0931 47.1127 91.8774 47.1175C91.6665 47.1143 91.4588 47.1621 91.2705 47.2528C91.0821 47.3451 90.918 47.4788 90.7924 47.6459C90.5123 48.0295 90.3819 48.5388 90.3819 49.1961L90.3835 49.1929Z" fill="var(--fill-0, #36373B)"/>
<path id="Vector_21" d="M96.8064 46.4953L96.8257 47.0778C97.2121 46.6226 97.7465 46.4046 98.4114 46.4046C99.1486 46.4046 99.6637 46.6767 99.939 47.2417C100.123 46.9855 100.361 46.7738 100.639 46.6226C100.916 46.4587 101.265 46.3855 101.652 46.3855C102.812 46.3855 103.421 47.0046 103.439 48.2253V51.7585H102.536V48.2794C102.536 47.8974 102.444 47.6237 102.278 47.4423C102.112 47.2592 101.818 47.1685 101.393 47.1685C101.061 47.1685 100.766 47.2592 100.546 47.4614C100.325 47.6619 100.197 47.9356 100.16 48.2635V51.7601H99.2388V48.316C99.2388 47.5505 98.8524 47.1685 98.0958 47.1685C97.5051 47.1685 97.0833 47.4232 96.8628 47.915V51.7585H95.9597V46.4937H96.8064V46.4953Z" fill="var(--fill-0, #36373B)"/>
<path id="Vector_22" d="M109.797 49.1914C109.797 49.992 109.613 50.6302 109.245 51.122C108.876 51.6138 108.379 51.8525 107.735 51.8525C107.091 51.8525 106.574 51.652 106.205 51.2509V53.783H105.302V46.4937H106.131L106.168 47.0763C106.537 46.6211 107.052 46.403 107.715 46.403C108.379 46.403 108.858 46.6402 109.225 47.1129C109.594 47.5855 109.779 48.2604 109.779 49.0991V49.1898H109.795L109.797 49.1914ZM108.876 49.1007C108.876 48.4991 108.747 48.0439 108.49 47.6985C108.232 47.3532 107.881 47.1893 107.44 47.1893C106.886 47.1893 106.481 47.4264 106.207 47.9198V50.4296C106.484 50.9039 106.888 51.1602 107.459 51.1602C107.904 51.1602 108.251 50.9962 108.511 50.6509C108.749 50.2673 108.878 49.7755 108.878 49.1023L108.876 49.1007Z" fill="var(--fill-0, #36373B)"/>
<path id="Vector_23" d="M114.727 51.7602C114.673 51.6504 114.636 51.4673 114.599 51.2143C114.175 51.6535 113.678 51.87 113.089 51.87C112.572 51.87 112.131 51.7236 111.798 51.4307C111.638 51.2923 111.511 51.122 111.424 50.9294C111.339 50.7368 111.295 50.5299 111.3 50.3198C111.3 49.7739 111.503 49.3538 111.926 49.045C112.35 48.7362 112.939 48.5898 113.713 48.5898H114.597V48.1728C114.597 47.8641 114.505 47.6078 114.32 47.4264C114.135 47.2449 113.84 47.1526 113.473 47.1526C113.142 47.1526 112.881 47.2258 112.662 47.3898C112.443 47.5537 112.33 47.7542 112.33 47.9739H111.41C111.41 47.7192 111.501 47.463 111.687 47.2083C111.891 46.9521 112.157 46.7516 112.461 46.6242C112.797 46.4762 113.161 46.403 113.528 46.4062C114.137 46.4062 114.615 46.5526 114.966 46.8614C115.315 47.1701 115.5 47.5919 115.5 48.1187V50.541C115.5 51.0328 115.555 51.4148 115.685 51.6885V51.7618H114.726L114.727 51.7602ZM113.217 51.0869C113.502 51.0869 113.782 51.0105 114.029 50.8673C114.286 50.7209 114.471 50.5395 114.581 50.3023V49.2296H113.861C112.738 49.2296 112.186 49.5575 112.186 50.1941C112.186 50.4678 112.277 50.705 112.482 50.8498C112.694 51.0042 112.953 51.0869 113.217 51.0838V51.0869Z" fill="var(--fill-0, #36373B)"/>
<path id="Vector_24" d="M118.311 46.4953L118.348 47.151C118.753 46.6417 119.288 46.3855 119.951 46.3855C121.075 46.3855 121.646 47.0046 121.646 48.2619V51.7442H120.725V48.2619C120.725 47.8799 120.632 47.6062 120.468 47.4248C120.302 47.2433 120.023 47.151 119.656 47.151C119.379 47.1431 119.107 47.2258 118.884 47.3882C118.66 47.5457 118.481 47.759 118.367 48.0073V51.7601H117.464V46.4953H118.312H118.311Z" fill="var(--fill-0, #36373B)"/>
<path id="Vector_25" d="M125.258 50.4486L126.49 46.4952H127.467L125.329 52.5606C124.997 53.4344 124.463 53.872 123.745 53.872L123.579 53.8529L123.248 53.7988V53.0683L123.487 53.0874C123.8 53.0874 124.04 53.0333 124.205 52.9044C124.371 52.7771 124.519 52.559 124.63 52.2296L124.833 51.7012L122.935 46.492H123.93L125.258 50.447V50.4486Z" fill="var(--fill-0, #36373B)"/>
</g>
<defs>
<linearGradient id="paint0_linear_0_898" x1="60.7282" y1="5.33943" x2="123.492" y2="31.2439" gradientUnits="userSpaceOnUse">
<stop stop-color="#33E6F7"/>
<stop offset="0.49" stop-color="#5B75FF"/>
<stop offset="1" stop-color="#E80DF6"/>
</linearGradient>
</defs>
</svg>
